<svg width="391" height="375" viewBox="0 0 391 375" fill="none" xmlns="http://www.w3.org/2000/svg">
<g id="Group">
<path id="Vector" d="M195.5 374.042C303.08 374.042 390.292 290.524 390.292 187.5C390.292 84.4759 303.08 0.958328 195.5 0.958328C87.9195 0.958328 0.708328 84.4759 0.708328 187.5C0.708328 290.524 87.9195 374.042 195.5 374.042Z" fill="#2A1540"/>
<g id="Group_2">
<g id="Group_3">
<g id="Group_4">
<g id="Group_5">
<path id="Vector_2" d="M317.843 291.44H68.8376C63.5991 291.44 59.9951 289.919 58.6904 287.155C58.2176 286.154 57.431 283.492 60.3213 280.407L97.7206 240.482C100.173 237.865 106.256 236.495 110.998 236.495H161.422C162.998 236.495 164.276 237.709 164.276 239.206C164.276 240.703 162.998 241.917 161.422 241.917H110.998C106.801 241.917 102.793 243.223 101.984 244.087L64.5848 284.011C63.9579 284.68 63.9207 285.029 63.9207 285.029C64.0393 285.153 65.3147 286.018 68.8376 286.018H317.843C321.276 286.018 322.574 285.197 322.776 284.941C322.739 284.93 322.639 284.592 322.096 284.011L284.696 244.086C283.887 243.223 279.879 241.917 275.681 241.917H238.463C236.887 241.917 235.61 240.703 235.61 239.206C235.61 237.709 236.887 236.494 238.463 236.494H275.681C280.423 236.494 286.507 237.864 288.959 240.482L326.36 280.407C329.25 283.492 328.462 286.152 327.991 287.153C326.685 289.919 323.081 291.44 317.843 291.44Z" fill="white"/>
<path id="Vector_3" d="M103.286 290.551C102.795 290.551 102.296 290.431 101.842 290.176C100.484 289.416 100.031 287.755 100.831 286.464L130.717 238.223C131.515 236.933 133.264 236.502 134.622 237.261C135.98 238.022 136.433 239.682 135.634 240.973L105.748 289.215C105.216 290.074 104.265 290.551 103.286 290.551Z" fill="white"/>
<path id="Vector_4" d="M299.76 290.551C298.856 290.551 297.969 290.145 297.414 289.387L262.096 241.146C261.195 239.917 261.515 238.226 262.809 237.372C264.101 236.516 265.879 236.821 266.78 238.05L302.099 286.292C302.999 287.52 302.68 289.211 301.386 290.065C300.89 290.394 300.322 290.551 299.76 290.551Z" fill="white"/>
<path id="Vector_5" d="M94.6964 271.574C94.1056 271.574 93.5092 271.401 92.9985 271.042C91.7324 270.148 91.4678 268.45 92.406 267.249L106.795 248.813C107.735 247.612 109.523 247.358 110.788 248.249C112.054 249.143 112.318 250.84 111.38 252.042L96.9907 270.478C96.4304 271.195 95.5687 271.574 94.6964 271.574Z" fill="white"/>
</g>
<path id="Vector_6" d="M317.731 304.54H68.9481C63.0289 304.54 58.214 299.965 58.214 294.34V285.864C58.214 284.367 59.4911 283.153 61.0672 283.153C62.6432 283.153 63.9207 284.367 63.9207 285.864V294.34C63.9207 296.976 66.1753 299.118 68.9481 299.118H317.731C320.504 299.118 322.76 296.976 322.76 294.34V285.864C322.76 284.367 324.037 283.153 325.614 283.153C327.19 283.153 328.467 284.367 328.467 285.864V294.34C328.467 299.965 323.651 304.54 317.731 304.54Z" fill="white"/>
</g>
<path id="Vector_7" d="M196.222 262.538C196.185 262.538 196.147 262.538 196.11 262.536C195.021 262.495 194.051 261.869 193.612 260.921L183.624 239.421C139.393 232.862 106.234 196.167 106.234 153.443C106.234 105.448 147.33 66.3999 197.845 66.3999C248.359 66.3999 289.455 105.448 289.455 153.443C289.455 196.675 255.815 233.457 210.964 239.573L198.733 261.113C198.234 261.994 197.268 262.538 196.222 262.538ZM197.845 71.8221C150.477 71.8221 111.941 108.438 111.941 153.443C111.941 193.984 143.775 228.732 185.988 234.271C186.969 234.4 187.809 235.001 188.208 235.863L196.479 253.665L206.631 235.785C207.069 235.016 207.87 234.493 208.783 234.382C251.52 229.219 283.748 194.421 283.748 153.443C283.748 108.438 245.212 71.8221 197.845 71.8221Z" fill="white"/>
<path id="Vector_8" d="M196.139 273.382C181.126 273.382 155.716 270.869 155.716 261.452C155.716 253.216 175.468 250.707 183.961 250.009C185.506 249.885 186.912 250.985 187.049 252.477C187.185 253.968 186.022 255.281 184.451 255.41C167.931 256.767 161.785 260.355 161.417 261.508C162.014 263.263 173.22 267.959 196.139 267.959C219.058 267.959 230.265 263.262 230.862 261.395C230.516 260.428 224.778 257.004 209.365 255.544C207.797 255.396 206.653 254.068 206.809 252.579C206.966 251.087 208.362 249.973 209.932 250.15C219.876 251.09 236.562 253.81 236.562 261.451C236.562 270.869 211.153 273.382 196.139 273.382Z" fill="white"/>
</g>
<g id="Group_6">
<path id="Vector_9" d="M161.897 137.951C162.074 137.661 162.17 137.302 162.17 136.931C162.17 135.628 161.097 134.607 159.725 134.607H138.346C136.975 134.607 135.901 135.628 135.901 136.931C135.901 138.234 136.975 139.254 138.346 139.254H153.951L143.918 149.059C142.955 149.977 142.955 151.468 143.919 152.384L144.169 152.57C144.645 152.999 145.236 153.232 145.865 153.232C148.955 153.232 151.815 154.362 153.932 156.431C156.093 158.427 157.282 161.143 157.282 164.078C157.282 166.996 156.089 169.737 153.932 171.789C151.742 173.81 148.854 174.924 145.799 174.924C142.788 174.924 139.924 173.81 137.744 171.798C137.264 171.341 136.591 171.077 135.939 171.105C135.293 171.121 134.703 171.377 134.309 171.797C133.829 172.252 133.564 172.878 133.582 173.511C133.599 174.123 133.868 174.683 134.302 175.052C137.346 178.006 141.428 179.633 145.799 179.633C150.083 179.633 154.296 177.965 157.351 175.064C160.459 172.174 162.171 168.272 162.171 164.078C162.171 159.906 160.485 156.007 157.423 153.098C155.523 151.293 153.174 149.977 150.565 149.244L161.415 138.65C161.621 138.453 161.793 138.203 161.897 137.951Z" fill="white"/>
<path id="Vector_10" d="M189.006 139.252C190.305 139.157 191.325 138.11 191.322 136.81C191.272 136.187 190.956 135.598 190.458 135.193C189.992 134.813 189.412 134.63 188.851 134.672C181.717 134.905 175.788 138.395 172.157 144.501C169.296 149.203 167.68 155.469 167.605 162.153C167.605 163.17 167.605 164.129 167.735 165.036C168.014 173.221 175.004 179.633 183.647 179.633C192.459 179.633 199.627 172.851 199.627 164.514C199.627 156.175 192.459 149.392 183.647 149.392C180.034 149.392 176.551 150.581 173.756 152.716C174.414 150.441 175.266 148.447 176.301 146.771C179.418 141.856 183.447 139.467 189.006 139.252ZM172.666 165.384C172.609 165.168 172.561 164.981 172.561 164.761V164.514C172.561 158.703 177.535 153.976 183.647 153.976C189.835 153.976 194.87 158.703 194.87 164.514C194.87 170.324 189.835 175.051 183.647 175.051C178.162 175.051 173.465 171.205 172.644 166.076C172.691 165.894 172.691 165.725 172.691 165.57L172.666 165.384Z" fill="white"/>
<path id="Vector_11" d="M221.04 179.633C225.643 179.633 229.944 177.175 233.159 172.7C236.112 168.424 237.738 162.891 237.738 157.121C237.738 151.376 236.113 145.823 233.148 141.463C229.921 137.041 225.62 134.607 221.04 134.607C216.459 134.607 212.158 137.041 208.921 141.477C206.011 145.659 204.407 151.215 204.407 157.121C204.407 163.05 206.012 168.585 208.929 172.712C212.135 177.175 216.437 179.633 221.04 179.633ZM209.23 157.121C209.23 152.198 210.586 147.44 212.957 144.061C215.12 140.921 217.991 139.192 221.04 139.192C224.072 139.192 226.868 140.879 229.127 144.067C231.533 147.498 232.914 152.256 232.914 157.121C232.914 161.987 231.534 166.744 229.136 170.159C226.819 173.314 223.943 175.051 221.04 175.051C218.074 175.051 215.201 173.316 212.953 170.173C210.586 166.803 209.23 162.046 209.23 157.121Z" fill="white"/>
<path id="Vector_12" d="M256.861 134.236C251.17 134.236 246.177 138.834 246.177 144.075V144.199C246.177 149.441 251.17 154.039 256.861 154.039C262.551 154.039 267.542 149.441 267.542 144.199V144.075C267.542 138.834 262.551 134.236 256.861 134.236ZM256.861 149.766C253.396 149.766 251.068 146.887 251.068 144.2V144.076C251.068 141.388 253.396 138.509 256.861 138.509C260.326 138.509 262.654 141.388 262.654 144.076V144.2C262.654 146.887 260.326 149.766 256.861 149.766Z" fill="white"/>
</g>
</g>
</g>
</svg>
