<svg width="449" height="449" viewBox="0 0 449 449" fill="none" xmlns="http://www.w3.org/2000/svg">
<g id="augmentedreality-39_111383 1">
<rect width="449" height="449" fill="transparent"/>
<g id="Group">
<path id="Vector" d="M224.5 430.292C338.156 430.292 430.292 338.156 430.292 224.5C430.292 110.844 338.156 18.7083 224.5 18.7083C110.844 18.7083 18.7083 110.844 18.7083 224.5C18.7083 338.156 110.844 430.292 224.5 430.292Z" fill="#2A1540"/>
<g id="Group_3">
<path id="Vector_2" d="M340.717 142.955C340.662 142.78 340.594 142.614 340.511 142.454C340.477 142.389 340.445 142.326 340.406 142.263C340.297 142.085 340.172 141.918 340.03 141.765C340.006 141.739 339.987 141.709 339.962 141.684C339.79 141.51 339.594 141.361 339.385 141.23C339.365 141.218 339.352 141.2 339.332 141.189L245.551 85.4047C244.546 84.8064 243.29 84.8064 242.285 85.4047L166.295 130.607C164.791 131.502 164.302 133.439 165.204 134.93C166.106 136.424 168.056 136.909 169.561 136.014L243.918 91.7827L331.522 143.893L243.987 195.961L218.468 179.471V152.879C218.468 146.958 213.612 142.14 207.643 142.14H124.031C118.063 142.14 113.207 146.958 113.207 152.879V333.512C113.207 339.433 118.063 344.251 124.031 344.251H207.643C213.612 344.251 218.468 339.433 218.468 333.512V299.585L242.268 313.939C242.775 314.244 243.346 314.397 243.918 314.397C244.484 314.397 245.048 314.248 245.551 313.949L339.332 258.164C339.352 258.152 339.366 258.134 339.385 258.122C339.594 257.991 339.79 257.842 339.963 257.668C339.987 257.643 340.006 257.613 340.03 257.587C340.172 257.434 340.297 257.268 340.407 257.089C340.445 257.027 340.478 256.963 340.511 256.898C340.595 256.739 340.662 256.572 340.717 256.398C340.738 256.331 340.762 256.268 340.779 256.201C340.837 255.962 340.876 255.716 340.876 255.46V143.892C340.876 143.636 340.837 143.39 340.779 143.152C340.762 143.084 340.738 143.021 340.717 142.955ZM334.523 149.456V249.897L250.096 199.676L334.523 149.456ZM207.643 337.948H124.032C121.566 337.948 119.56 335.958 119.56 333.512V311.281H212.116V333.512C212.116 335.958 210.11 337.948 207.643 337.948ZM124.032 148.442H207.643C210.11 148.442 212.116 150.433 212.116 152.879V163.23H119.559V152.879C119.559 150.433 121.566 148.442 124.032 148.442ZM212.116 304.978H119.559V169.532H212.116V304.978ZM243.929 307.565L218.468 292.208V186.992L237.927 199.565L225.315 207.068C223.81 207.963 223.321 209.9 224.223 211.391C225.126 212.885 227.077 213.37 228.58 212.475L243.918 203.351L331.522 255.46L243.929 307.565Z" fill="white"/>
<path id="Vector_3" d="M179.967 320.554H151.708C149.954 320.554 148.532 321.965 148.532 323.705C148.532 325.446 149.954 326.857 151.708 326.857H179.967C181.722 326.857 183.144 325.446 183.144 323.705C183.144 321.965 181.722 320.554 179.967 320.554Z" fill="white"/>
<path id="Vector_4" d="M146.978 256.543C146.985 256.731 147.01 256.917 147.052 257.103C147.068 257.174 147.082 257.244 147.103 257.313C147.158 257.496 147.234 257.675 147.325 257.852C147.35 257.9 147.367 257.951 147.395 257.998C147.402 258.01 147.406 258.025 147.413 258.038C147.468 258.128 147.545 258.196 147.607 258.279C147.702 258.405 147.789 258.535 147.902 258.647C148.009 258.752 148.131 258.832 148.25 258.92C148.338 258.985 148.411 259.064 148.505 259.121L201.486 290.635C201.998 290.94 202.561 291.083 203.117 291.083C204.195 291.083 205.248 290.538 205.844 289.552C206.746 288.06 206.257 286.124 204.752 285.229L156.315 256.417L204.752 227.605C206.257 226.71 206.746 224.774 205.844 223.282C204.942 221.789 202.99 221.304 201.486 222.199L153.314 250.853V178.843C153.314 177.102 151.892 175.691 150.138 175.691C148.384 175.691 146.962 177.102 146.962 178.843V256.418C146.961 256.461 146.976 256.501 146.978 256.543Z" fill="white"/>
</g>
</g>
</g>
</svg>
