<svg version="1.1" id="Layer_1" xmlns="http://www.w3.org/2000/svg" xmlns:xlink="http://www.w3.org/1999/xlink" x="0px" y="0px"
	 viewBox="0 0 1200 1200" enable-background="new 0 0 1200 1200" xml:space="preserve">
<g>
	<circle fill="#2A1540" cx="600" cy="600" r="550"/>
	<g>
		<path fill="#C4E9FB" d="M493.309,817.748H296.501c-17.629,0-31.974-14.228-31.974-31.718V348.364
			c0-17.49,14.345-31.723,31.974-31.723h196.808c17.629,0,31.974,14.233,31.974,31.723V786.03
			C525.284,803.52,510.939,817.748,493.309,817.748z M296.501,332.628c-8.744,0-15.862,7.062-15.862,15.736V786.03
			c0,8.674,7.118,15.732,15.862,15.732h196.808c8.744,0,15.862-7.057,15.862-15.732V348.364c0-8.674-7.118-15.736-15.862-15.736
			H296.501z"/>
		<path fill="#C4E9FB" d="M514.301,735.608H275.51c-4.448,0-8.057-3.58-8.057-7.994c0-4.413,3.609-7.994,8.057-7.994h238.791
			c4.448,0,8.056,3.58,8.056,7.994C522.357,732.028,518.748,735.608,514.301,735.608z"/>
		<path fill="#C4E9FB" d="M514.301,385.616H275.51c-4.448,0-8.057-3.58-8.057-7.993c0-4.414,3.609-7.994,8.057-7.994h238.791
			c4.448,0,8.056,3.58,8.056,7.994C522.357,382.035,518.748,385.616,514.301,385.616z"/>
		<path fill="#C4E9FB" d="M442.122,777.297h-94.433c-4.448,0-8.057-3.58-8.057-7.993c0-4.414,3.609-7.994,8.057-7.994h94.433
			c4.449,0,8.057,3.58,8.057,7.994C450.179,773.717,446.57,777.297,442.122,777.297z"/>
	</g>
	<g>
		<path fill="#C4E9FB" d="M560.138,652.354c-4.448,0-8.056-3.58-8.056-7.993c0-4.413,3.608-7.994,8.056-7.994
			c35.105,0,63.666-28.336,63.666-63.167c0-34.83-28.56-63.167-63.666-63.167c-4.448,0-8.056-3.58-8.056-7.993
			c0-4.413,3.608-7.994,8.056-7.994c43.991,0,79.779,35.507,79.779,79.154C639.917,616.847,604.129,652.354,560.138,652.354z"/>
		<path fill="#C4E9FB" d="M712.903,307.519c-31.124,0-56.448-25.125-56.448-56.006c0-30.886,25.324-56.011,56.448-56.011
			c31.13,0,56.453,25.125,56.453,56.011C769.356,282.394,744.033,307.519,712.903,307.519z M712.903,211.489
			c-22.239,0-40.335,17.954-40.335,40.024c0,22.065,18.096,40.019,40.335,40.019c22.245,0,40.341-17.954,40.341-40.019
			C753.243,229.442,735.148,211.489,712.903,211.489z"/>
		<path fill="#C4E9FB" d="M889.77,477.253c-31.124,0-56.448-25.125-56.448-56.006s25.324-56.006,56.448-56.006
			c31.125,0,56.449,25.125,56.449,56.006S920.895,477.253,889.77,477.253z M889.77,381.228c-22.24,0-40.335,17.954-40.335,40.02
			c0,22.065,18.096,40.019,40.335,40.019s40.335-17.954,40.335-40.019C930.104,399.182,912.009,381.228,889.77,381.228z"/>
		<path fill="#C4E9FB" d="M886.874,743.997c-31.124,0-56.448-25.125-56.448-56.006s25.324-56.006,56.448-56.006
			c31.131,0,56.454,25.125,56.454,56.006S918.005,743.997,886.874,743.997z M886.874,647.972c-22.239,0-40.335,17.954-40.335,40.019
			c0,22.065,18.096,40.018,40.335,40.018c22.245,0,40.341-17.953,40.341-40.018C927.215,665.925,909.119,647.972,886.874,647.972z"
			/>
		<path fill="#C4E9FB" d="M715.798,919.476c-31.125,0-56.448-25.124-56.448-56.006c0-30.886,25.323-56.011,56.448-56.011
			c31.124,0,56.448,25.125,56.448,56.011C772.247,894.352,746.923,919.476,715.798,919.476z M715.798,823.446
			c-22.24,0-40.335,17.954-40.335,40.024c0,22.066,18.095,40.019,40.335,40.019s40.335-17.953,40.335-40.019
			C756.134,841.401,738.038,823.446,715.798,823.446z"/>
		<path fill="#C4E9FB" d="M560.138,732.761c-4.448,0-8.056-3.58-8.056-7.994c0-4.413,3.608-7.993,8.056-7.993
			c79.794,0,144.709-64.406,144.709-143.575c0-79.168-64.915-143.574-144.709-143.574c-4.448,0-8.056-3.58-8.056-7.993
			c0-4.414,3.608-7.994,8.056-7.994c88.679,0,160.822,71.577,160.822,159.561C720.96,661.185,648.817,732.761,560.138,732.761z"/>
		<path fill="#C4E9FB" d="M618.349,429.626c-1.369,0-2.753-0.344-4.023-1.072c-3.855-2.207-5.171-7.093-2.948-10.918l73.784-126.802
			c2.224-3.825,7.16-5.131,11.004-2.924c3.855,2.207,5.172,7.093,2.948,10.917l-73.783,126.802
			C623.841,428.195,621.129,429.626,618.349,429.626z"/>
		<path fill="#C4E9FB" d="M703.137,518.074c-3.037,0-5.947-1.712-7.311-4.626c-1.873-4.002-0.126-8.752,3.913-10.616l138.247-63.744
			c4.023-1.859,8.828-0.125,10.7,3.882c1.872,4.002,0.126,8.753-3.913,10.616L706.525,517.33
			C705.429,517.835,704.275,518.074,703.137,518.074z"/>
		<path fill="#C4E9FB" d="M841.372,679.758c-1.038,0-2.098-0.198-3.115-0.624l-128.475-53.56c-4.101-1.713-6.032-6.396-4.306-10.465
			c1.72-4.07,6.441-5.996,10.547-4.273l128.475,53.56c4.101,1.713,6.032,6.396,4.306,10.466
			C847.51,677.921,844.52,679.758,841.372,679.758z"/>
		<path fill="#C4E9FB" d="M692.143,829.604c-2.906,0-5.712-1.562-7.149-4.294l-60.278-114.577c-2.056-3.913-0.53-8.743,3.415-10.788
			c3.944-2.024,8.817-0.526,10.873,3.388l60.278,114.577c2.056,3.914,0.529,8.743-3.415,10.789
			C694.676,829.311,693.402,829.604,692.143,829.604z"/>
	</g>
</g>
</svg>
