<?xml version="1.0" encoding="utf-8"?>
<!-- Generator: Adobe Illustrator 19.1.0, SVG Export Plug-In . SVG Version: 6.00 Build 0)  -->
<svg version="1.1" id="Layer_1" xmlns="http://www.w3.org/2000/svg" xmlns:xlink="http://www.w3.org/1999/xlink" x="0px" y="0px"
	 viewBox="0 0 1200 1200" enable-background="new 0 0 1200 1200" xml:space="preserve">
<g>
	<circle fill="#2A1540" cx="600" cy="600" r="550"/>
	<g>
		<g>
			<path fill="#C4E9FB" d="M808.855,497.602v-15.448c0-10.747-6.338-20.487-15.557-25.343v-17.467
				c0-110.243-90.4-199.935-201.517-199.935c-111.115,0-201.514,89.692-201.514,199.935v17.461
				c-9.212,4.851-15.557,14.596-15.557,25.349v15.448c-12.487,12.081-20.276,28.919-20.276,47.548
				c0,18.628,7.789,35.467,20.276,47.547v36.09c-0.002,14.218,11.08,26.688,25.267,28.395c9.49,1.099,18.993,2.091,28.5,3.027
				c16.787,32.766,39.416,64.188,68.385,95.345c-2.588,16.985-7.41,33.612-14.486,49.204
				c-18.772,41.354-53.375,75.893-94.943,94.763c-3.14,1.427-5.097,4.596-4.949,8.019c0.147,3.423,2.371,6.417,5.622,7.57
				c0.344,0.122,0.666,0.263,1.009,0.386c4.542-6.495,12.003-10.987,22.385-10.922c0.785,0.005,1.568,0.058,2.352,0.072
				c36.538-21.623,66.569-54.558,84.003-92.973c5.958-13.125,10.46-26.924,13.502-41.053c11.641,11.666,24.172,23.32,37.661,35.019
				c12.19,10.575,27.478,15.863,42.764,15.863c15.289,0,30.576-5.288,42.766-15.861c14.663-12.719,28.186-25.384,40.671-38.07
				c3.034,15.192,7.714,30.036,14.099,44.102c12.963,28.559,32.924,54.064,57.295,74.192c9.402,5.241,18.088,11.569,26.668,18.069
				c3.194,0.894,6.377,1.832,9.537,2.867c1.126,0.369,2.132,0.891,3.18,1.36c2.537,0.264,5.087,0.598,7.659,1.048
				c3.564,0.624,6.583,1.74,9.156,3.195c1.099-1.367,1.798-3.042,1.876-4.866c0.148-3.423-1.808-6.593-4.949-8.019
				c-41.565-18.868-76.17-53.408-94.943-94.763c-7.544-16.621-12.516-34.418-14.956-52.571
				c27.483-30.056,49.065-60.393,65.246-91.978c9.508-0.936,19.011-1.928,28.501-3.027c0.011,0,0.024-0.002,0.036-0.004
				c14.148-1.701,25.231-14.17,25.231-28.389v-36.091c12.486-12.08,20.276-28.918,20.276-47.547
				C829.131,526.521,821.342,509.683,808.855,497.602z M407.244,439.344c0-100.956,82.784-183.09,184.539-183.09
				c101.754,0,184.537,82.134,184.537,183.09v13.628c-122.486-13.653-246.559-13.655-369.076-0.001V439.344z M623.373,792.958
				c-18.009,15.626-45.172,15.622-63.181,0c-49.919-43.3-86.497-85.881-111.35-130.852c47.523,4.089,95.231,6.141,142.94,6.141
				s95.418-2.052,142.942-6.141C709.87,707.076,673.292,749.657,623.373,792.958z M791.877,628.788
				c0,5.55-4.801,10.998-10.279,11.664c-125.961,14.6-253.694,14.601-379.615,0.002c-5.487-0.66-10.298-6.111-10.296-11.666V482.154
				c0-5.556,4.811-11.007,10.26-11.663c62.99-7.302,126.415-10.952,189.845-10.952c63.415,0,126.833,3.65,189.789,10.949
				c5.485,0.66,10.296,6.111,10.296,11.667V628.788z"/>
			<path fill="#C4E9FB" d="M751.652,489.639c-3.838,2.671-4.765,7.924-2.073,11.732c1.651,2.336,4.283,3.585,6.955,3.585
				c1.684,0,3.386-0.495,4.869-1.529c5.751-4.003,11.444-7.859,16.915-11.457c3.908-2.569,4.978-7.795,2.388-11.673
				c-2.591-3.88-7.858-4.941-11.765-2.368C763.343,481.609,757.526,485.55,751.652,489.639z"/>
			<path fill="#C4E9FB" d="M778.32,618.974c-5.529-3.637-11.219-7.493-16.915-11.459c-3.833-2.673-9.13-1.752-11.824,2.053
				c-2.694,3.807-1.767,9.061,2.069,11.732c5.818,4.053,11.636,7.993,17.29,11.712c1.442,0.951,3.072,1.405,4.681,1.405
				c2.751,0,5.451-1.326,7.083-3.77C783.296,626.769,782.228,621.543,778.32,618.974z"/>
			<path fill="#C4E9FB" d="M405.246,491.97c5.472,3.598,11.164,7.454,16.915,11.457c1.484,1.033,3.184,1.529,4.869,1.529
				c2.673,0,5.303-1.249,6.956-3.585c2.692-3.807,1.766-9.06-2.072-11.732c-5.874-4.089-11.692-8.031-17.29-11.71
				c-3.912-2.573-9.178-1.511-11.765,2.368C400.27,484.175,401.339,489.401,405.246,491.97z"/>
			<path fill="#C4E9FB" d="M433.985,609.567c-2.694-3.806-7.99-4.727-11.824-2.053c-5.695,3.966-11.386,7.822-16.915,11.459
				c-3.908,2.569-4.975,7.795-2.384,11.673c1.633,2.446,4.332,3.77,7.083,3.77c1.609,0,3.239-0.456,4.682-1.405
				c5.654-3.719,11.472-7.659,17.29-11.712C435.752,618.628,436.678,613.374,433.985,609.567z"/>
			<path fill="#C4E9FB" d="M548.439,502.407h86.688c4.688,0,8.489-3.771,8.489-8.422c0-4.653-3.8-8.423-8.489-8.423h-86.688
				c-4.689,0-8.489,3.77-8.489,8.423C539.95,498.636,543.75,502.407,548.439,502.407z"/>
		</g>
	</g>
</g>
</svg>
