<?xml version="1.0" encoding="UTF-8"?>
<!DOCTYPE svg PUBLIC "-//W3C//DTD SVG 1.1//EN" "http://www.w3.org/Graphics/SVG/1.1/DTD/svg11.dtd">
<!-- Creator: CorelDRAW 2020 (64 Bit) -->
<svg xmlns="http://www.w3.org/2000/svg" xml:space="preserve" width="297mm" height="210mm" version="1.1" style="shape-rendering:geometricPrecision; text-rendering:geometricPrecision; image-rendering:optimizeQuality; fill-rule:evenodd; clip-rule:evenodd"
viewBox="0 0 29700 21000"
 xmlns:xlink="http://www.w3.org/1999/xlink"
 xmlns:xodm="http://www.corel.com/coreldraw/odm/2003">
 <defs>
  <style type="text/css">
   <![CDATA[
    .str0 {stroke:#FEFEFE;stroke-width:20;stroke-miterlimit:22.9256}
    .fil0 {fill:#FEFEFE}
   ]]>
  </style>
   <clipPath id="id0">
    <rect x="9222.84" y="4114.16" width="12238.05" height="12238.05"/>
   </clipPath>
 </defs>
 <g id="Camada_x0020_1">
  <metadata id="CorelCorpID_0Corel-Layer"/>
  <g style="clip-path:url(#id0)">
   <image x="9222.84" y="4114.15" width="12238.06" height="12238.06" xlink:href="LOG PHI011_Images\LOG PHI011_ImgID1.png"/>
  </g>
  <polygon class="fil0 str0" points="13845.01,5002.23 13507.8,5009.4 13204.88,5059.63 12924.83,5145.73 12547.61,5325.11 12216.12,5561.89 11896.05,5834.54 11650.29,6078.49 11335.94,6487.47 11021.59,6968.2 10815.83,7370.01 10678.67,7649.84 10575.78,7958.36 10490.05,8352.99 10438.62,8776.32 10444.33,9178.13 10495.77,9551.23 10581.5,9874.1 10730.1,10225.68 10872.99,10498.33 11084.46,10778.16 11255.92,10950.37 11507.4,11179.97 11798.89,11380.87 12250.4,11624.83 12656.2,11782.67 13050.57,11911.83 13542.09,12033.8 14079.34,12141.43 14096.49,12141.43 14473.7,12198.83 14542.29,12220.36 14822.35,12227.53 14736.62,12772.84 14622.31,13425.77 14519.43,13892.15 14439.42,14293.96 14405.12,14702.93 14456.56,14982.76 14530.86,15133.44 14628.02,15255.41 14633.74,15291.29 14816.63,15387.23 15782.54,15387.23 15851.12,15327.17 15982.58,15176.49 16045.45,15032.99 16079.74,14839.26 16085.46,14552.26 16051.16,14171.98 15994.01,13784.53 15919.71,13346.84 15839.69,12830.24 15788.26,12392.56 15759.68,12198.83 16056.88,12191.65 16508.4,12141.43 16959.91,12062.5 17405.72,11983.58 17982.98,11797.02 18337.33,11667.87 18731.69,11481.33 19103.2,11258.89 19508.99,10993.41 19726.18,10799.69 19977.66,10548.56 20194.84,10268.73 20372.02,9981.73 20537.77,9644.5 20663.51,9242.7 20749.24,8905.47 20777.82,8489.32 20754.96,7936.83 20703.52,7484.81 20577.78,7090.18 20389.17,6709.9 20171.99,6351.15 19703.32,5827.36 19206.08,5475.79 18731.69,5239.01 18308.76,5124.2 17862.95,5066.81 17371.42,5052.46 16982.78,5102.68 16588.41,5195.96 16571.27,5195.96 16205.48,5382.51 15913.99,5604.94 15588.22,5963.69 15359.6,6336.79 15170.99,6760.13 15022.39,7255.21 14908.08,7843.56 14828.06,8474.96 14810.92,8912.65 14810.92,9630.15 14856.64,10483.98 14868.07,11144.09 14890.93,11675.05 15759.68,11703.75 15736.81,10275.91 15702.52,9063.33 15736.81,8302.77 15736.81,8252.54 15839.69,7578.08 15936.85,7133.23 16039.73,6831.87 16056.88,6810.35 16182.62,6523.35 16428.38,6143.06 16702.72,5906.29 16948.49,5798.66 17274.26,5719.74 17622.9,5734.09 17982.98,5820.19 18205.87,5949.34 18411.64,6121.54 18611.68,6372.67 18783.14,6645.33 18920.31,6946.67 19000.32,7269.56 19057.47,7613.96 19080.34,7987.06 19063.19,8360.16 18988.89,8919.82 18874.58,9328.8 18760.27,9658.85 18531.65,10031.96 18285.9,10376.36 17994.41,10684.89 17537.17,11043.64 17188.53,11251.72 16771.3,11445.45 16405.52,11567.42 16108.32,11646.35 15759.68,11703.75 14890.93,11675.05 14645.17,11660.7 14285.1,11632 14267.95,11632 13793.57,11531.55 13456.36,11438.27 13153.44,11294.77 12861.96,11129.74 12581.9,10914.49 12347.57,10656.19 12204.68,10455.29 12078.94,10196.99 11987.5,9945.86 11918.91,9594.27 11890.34,9257.05 11924.63,8848.07 11958.92,8518.02 12061.8,8130.56 12204.68,7771.81 12318.99,7549.38 12564.75,7190.63 12833.38,6939.5 13142.01,6702.72 13364.92,6566.39 13656.4,6422.89 13890.73,6336.79 13959.32,6336.79 14056.48,6107.19 14136.49,5863.24 14199.37,5647.98 14205.08,5389.68 14159.36,5224.66 14010.76,5059.63 13793.88,5003.32 13676.41,5005.81 13507.8,5009.4 "/>
  <path class="fil0" d="M19166.46 15414.53c-860.52,0 -1558.09,-697.59 -1558.09,-1558.09 0,-860.5 697.57,-1558.09 1558.09,-1558.09 860.51,0 1558.09,697.59 1558.09,1558.09 0,860.5 -697.58,1558.09 -1558.09,1558.09zm448.57 -881.14c-109.45,96.47 -222.66,168.66 -340.4,217.21 -118.51,49.2 -240.79,73.48 -367.61,73.48 -200.75,0 -360.77,-51.11 -480.03,-153.98 -120.01,-102.21 -179.64,-240.21 -179.64,-413.99 0,-115 27.93,-216.58 84.53,-305.38 55.85,-88.81 132.86,-158.45 230.22,-208.28 97.37,-49.83 245.3,-86.88 443.06,-110.52 265.68,-31.94 461.17,-70.28 584.96,-115l2.27 -86.24c0,-136.73 -28.69,-232.56 -86.07,-288.14 -80.74,-79.86 -205.29,-120.11 -372.85,-120.11 -151.72,0 -264.93,26.83 -340.4,79.86 -74.73,53.03 -129.84,153.33 -165.31,299.63l-326.07 -49.83c46.05,-211.47 138.13,-364.8 277.77,-461.27 139.64,-96.47 339.65,-144.38 599.3,-144.38 202.28,0 360.8,31.94 476.27,96.46 114.72,63.9 187.95,143.75 218.13,238.3 30.19,95.2 45.28,233.19 45.28,415.27l0 449.14c0,314.32 6.81,512.38 21.14,594.16 13.59,81.14 41.52,160.99 83.03,238.3l-339.65 0c-34.72,-68.37 -57.36,-150.14 -67.93,-244.69zm-24.91 -751.96c-119.26,49.83 -297.38,91.99 -533.64,126.49 -137.37,19.81 -233.22,42.81 -287.57,68.37 -55.1,25.55 -97.37,61.96 -127.56,108.6 -30.19,46.65 -45.29,100.94 -45.29,162.27 0,94.57 34.72,170.59 104.16,227.45 69.44,56.85 165.31,84.98 287.58,84.98 117,0 222.65,-25.57 317.75,-76.68 95.11,-51.11 166.83,-119.46 213.61,-205.08 47.56,-84.96 70.96,-209.55 70.96,-373.1l0 -123.3z"/>
 </g>
</svg>
