<svg width="125" height="125" viewBox="0 0 125 125" fill="none" xmlns="http://www.w3.org/2000/svg">
<g id="Union">
<mask id="path-1-inside-1_12_10" fill="white">
<path fill-rule="evenodd" clip-rule="evenodd" d="M39.4435 0.442698L40.8455 0.412994L43.434 1.08467L45.2076 3.05319L45.7533 5.02158L45.6851 8.10263L44.9347 10.6703L43.9797 13.5802L42.8201 16.3189H42.0015L39.2047 17.3459L35.7258 19.0576L33.0654 20.6838L29.3818 23.5081L26.1757 26.5037L23.2425 30.7829L21.8782 33.4361L20.1729 37.7153L18.945 42.337L18.5358 46.2739L18.1265 51.1523L18.4675 55.1748L19.2861 59.3686L20.3775 62.3641L21.8782 65.4452L23.5836 67.8416L26.3804 70.9226L29.7229 73.4902L33.2018 75.4587L36.8172 77.1704L40.8419 78.283L46.5037 79.4812H46.7083L51.0058 79.8236L53.939 79.9947L53.6662 73.6613L53.5298 65.7874L52.9841 55.6028V47.0443L53.1886 41.8234L54.1437 34.2919L55.508 27.274L57.2816 21.3686L59.5327 16.3189L62.2613 11.8685L66.1494 7.58924L69.6284 4.93605L73.9941 2.71084H74.1987L78.9056 1.59818L83.5441 0.999148L89.4105 1.17032L94.7314 1.85488L99.7791 3.22435L105.441 6.04871L111.376 10.2423L116.969 16.4902L119.561 20.7694L121.812 25.3055L123.313 30.0127L123.927 35.4045L124.2 41.9947L123.859 46.9586L122.836 50.9812L121.335 55.7739L119.357 59.7965L117.242 63.2199L114.65 66.5577L111.648 69.5533L109.056 71.864L104.213 75.0307L99.7791 77.684L95.0723 79.9091L90.8431 81.4496L83.9534 83.6749L78.6326 84.6163L73.2438 85.5578L67.8548 86.1568L64.3077 86.2425L64.6488 88.5533L65.2626 93.7741L66.2177 99.9362L67.1044 105.157L67.7866 109.779L68.1959 114.315L68.1277 117.738L67.7184 120.049L66.968 121.761L65.399 123.558L64.5805 124.274H53.0522L50.8694 123.13L50.8011 122.702L49.6415 121.247L48.7547 119.45L48.1408 116.112L48.5502 111.234L49.5051 106.441L50.733 100.878L52.0973 93.0894L53.1205 86.5848L49.7779 86.4993L48.9593 86.2425L44.4573 85.5578H44.2526L37.8404 84.274L31.974 82.8191L27.2672 81.2784L22.4239 79.3957L17.035 76.4857L13.5561 74.0893L10.5546 71.3506L8.50819 69.2964L5.98426 65.9586L4.27884 62.7063L2.50528 58.5126L1.48208 54.6614L0.868137 50.211L0.799988 45.4181L1.41381 40.3685L2.43702 35.6613L3.66502 31.9812L5.30205 28.6433L7.75782 23.8505L11.5096 18.1162L15.2615 13.2378L18.1946 10.328L22.0147 7.07573L25.9711 4.25137L30.4733 2.11169L33.8157 1.08467L37.4311 0.485519L39.4435 0.442698ZM64.0347 63.3055L64.3077 80.3371L68.4688 79.6524L72.0159 78.7109L76.3815 77.256L81.3612 74.9452L85.5223 72.4631L90.9795 68.1839L94.4585 64.5037L97.3916 60.3956L100.12 55.9451L101.485 52.0082L102.849 47.1298L103.736 40.4541L103.94 36.0036L103.667 31.5532L102.985 27.4452L102.03 23.5937L100.393 19.9992L98.3468 16.7469L95.9593 13.7513L93.5033 11.6973L90.8431 10.1568L86.5455 9.12977L82.3844 8.9586L78.4963 9.89997L75.563 11.1838L72.2887 14.008L69.3555 18.5442L67.8548 21.9676L67.6501 22.2243L66.4222 25.819L65.2626 31.1252L64.0347 39.1703V39.7695L63.6255 48.8416L64.0347 63.3055ZM86.3721 106.015C86.3721 116.279 94.6977 124.6 104.968 124.6C115.238 124.6 123.564 116.279 123.564 106.015C123.564 95.7506 115.238 87.4296 104.968 87.4296C94.6977 87.4296 86.3721 95.7506 86.3721 106.015ZM106.259 116.68C107.664 116.101 109.016 115.24 110.322 114.09C110.448 115.217 110.718 116.193 111.133 117.008H115.186C114.691 116.086 114.358 115.134 114.195 114.166C114.024 113.19 113.943 110.828 113.943 107.079V101.721C113.943 99.5492 113.763 97.9032 113.403 96.7677C113.043 95.6399 112.169 94.6874 110.799 93.9252C109.421 93.1556 107.529 92.7746 105.115 92.7746C102.016 92.7746 99.6288 93.3461 97.9622 94.4968C96.2956 95.6475 95.1966 97.4764 94.647 99.9989L98.5387 100.593C98.962 98.8482 99.6198 97.6518 100.512 97.0192C101.412 96.3867 102.764 96.0667 104.574 96.0667C106.574 96.0667 108.061 96.5468 109.024 97.4994C109.709 98.1623 110.052 99.3054 110.052 100.936L110.025 101.965C108.547 102.498 106.214 102.956 103.043 103.337C100.683 103.619 98.9171 104.061 97.755 104.655C96.593 105.249 95.6739 106.08 95.0073 107.139C94.3318 108.199 93.9984 109.41 93.9984 110.782C93.9984 112.855 94.7101 114.501 96.1425 115.72C97.5658 116.947 99.4757 117.557 101.872 117.557C103.385 117.557 104.845 117.267 106.259 116.68ZM103.656 106.629C106.475 106.217 108.601 105.714 110.025 105.12V106.591C110.025 108.542 109.745 110.028 109.178 111.041C108.619 112.062 107.763 112.878 106.628 113.487C105.493 114.097 104.232 114.402 102.836 114.402C101.377 114.402 100.232 114.067 99.4035 113.388C98.5747 112.71 98.1603 111.803 98.1603 110.675C98.1603 109.944 98.3406 109.296 98.7009 108.74C99.0612 108.183 99.5657 107.749 100.223 107.444C100.872 107.139 102.016 106.865 103.656 106.629Z"/>
</mask>
<path fill-rule="evenodd" clip-rule="evenodd" d="M39.4435 0.442698L40.8455 0.412994L43.434 1.08467L45.2076 3.05319L45.7533 5.02158L45.6851 8.10263L44.9347 10.6703L43.9797 13.5802L42.8201 16.3189H42.0015L39.2047 17.3459L35.7258 19.0576L33.0654 20.6838L29.3818 23.5081L26.1757 26.5037L23.2425 30.7829L21.8782 33.4361L20.1729 37.7153L18.945 42.337L18.5358 46.2739L18.1265 51.1523L18.4675 55.1748L19.2861 59.3686L20.3775 62.3641L21.8782 65.4452L23.5836 67.8416L26.3804 70.9226L29.7229 73.4902L33.2018 75.4587L36.8172 77.1704L40.8419 78.283L46.5037 79.4812H46.7083L51.0058 79.8236L53.939 79.9947L53.6662 73.6613L53.5298 65.7874L52.9841 55.6028V47.0443L53.1886 41.8234L54.1437 34.2919L55.508 27.274L57.2816 21.3686L59.5327 16.3189L62.2613 11.8685L66.1494 7.58924L69.6284 4.93605L73.9941 2.71084H74.1987L78.9056 1.59818L83.5441 0.999148L89.4105 1.17032L94.7314 1.85488L99.7791 3.22435L105.441 6.04871L111.376 10.2423L116.969 16.4902L119.561 20.7694L121.812 25.3055L123.313 30.0127L123.927 35.4045L124.2 41.9947L123.859 46.9586L122.836 50.9812L121.335 55.7739L119.357 59.7965L117.242 63.2199L114.65 66.5577L111.648 69.5533L109.056 71.864L104.213 75.0307L99.7791 77.684L95.0723 79.9091L90.8431 81.4496L83.9534 83.6749L78.6326 84.6163L73.2438 85.5578L67.8548 86.1568L64.3077 86.2425L64.6488 88.5533L65.2626 93.7741L66.2177 99.9362L67.1044 105.157L67.7866 109.779L68.1959 114.315L68.1277 117.738L67.7184 120.049L66.968 121.761L65.399 123.558L64.5805 124.274H53.0522L50.8694 123.13L50.8011 122.702L49.6415 121.247L48.7547 119.45L48.1408 116.112L48.5502 111.234L49.5051 106.441L50.733 100.878L52.0973 93.0894L53.1205 86.5848L49.7779 86.4993L48.9593 86.2425L44.4573 85.5578H44.2526L37.8404 84.274L31.974 82.8191L27.2672 81.2784L22.4239 79.3957L17.035 76.4857L13.5561 74.0893L10.5546 71.3506L8.50819 69.2964L5.98426 65.9586L4.27884 62.7063L2.50528 58.5126L1.48208 54.6614L0.868137 50.211L0.799988 45.4181L1.41381 40.3685L2.43702 35.6613L3.66502 31.9812L5.30205 28.6433L7.75782 23.8505L11.5096 18.1162L15.2615 13.2378L18.1946 10.328L22.0147 7.07573L25.9711 4.25137L30.4733 2.11169L33.8157 1.08467L37.4311 0.485519L39.4435 0.442698ZM64.0347 63.3055L64.3077 80.3371L68.4688 79.6524L72.0159 78.7109L76.3815 77.256L81.3612 74.9452L85.5223 72.4631L90.9795 68.1839L94.4585 64.5037L97.3916 60.3956L100.12 55.9451L101.485 52.0082L102.849 47.1298L103.736 40.4541L103.94 36.0036L103.667 31.5532L102.985 27.4452L102.03 23.5937L100.393 19.9992L98.3468 16.7469L95.9593 13.7513L93.5033 11.6973L90.8431 10.1568L86.5455 9.12977L82.3844 8.9586L78.4963 9.89997L75.563 11.1838L72.2887 14.008L69.3555 18.5442L67.8548 21.9676L67.6501 22.2243L66.4222 25.819L65.2626 31.1252L64.0347 39.1703V39.7695L63.6255 48.8416L64.0347 63.3055ZM86.3721 106.015C86.3721 116.279 94.6977 124.6 104.968 124.6C115.238 124.6 123.564 116.279 123.564 106.015C123.564 95.7506 115.238 87.4296 104.968 87.4296C94.6977 87.4296 86.3721 95.7506 86.3721 106.015ZM106.259 116.68C107.664 116.101 109.016 115.24 110.322 114.09C110.448 115.217 110.718 116.193 111.133 117.008H115.186C114.691 116.086 114.358 115.134 114.195 114.166C114.024 113.19 113.943 110.828 113.943 107.079V101.721C113.943 99.5492 113.763 97.9032 113.403 96.7677C113.043 95.6399 112.169 94.6874 110.799 93.9252C109.421 93.1556 107.529 92.7746 105.115 92.7746C102.016 92.7746 99.6288 93.3461 97.9622 94.4968C96.2956 95.6475 95.1966 97.4764 94.647 99.9989L98.5387 100.593C98.962 98.8482 99.6198 97.6518 100.512 97.0192C101.412 96.3867 102.764 96.0667 104.574 96.0667C106.574 96.0667 108.061 96.5468 109.024 97.4994C109.709 98.1623 110.052 99.3054 110.052 100.936L110.025 101.965C108.547 102.498 106.214 102.956 103.043 103.337C100.683 103.619 98.9171 104.061 97.755 104.655C96.593 105.249 95.6739 106.08 95.0073 107.139C94.3318 108.199 93.9984 109.41 93.9984 110.782C93.9984 112.855 94.7101 114.501 96.1425 115.72C97.5658 116.947 99.4757 117.557 101.872 117.557C103.385 117.557 104.845 117.267 106.259 116.68ZM103.656 106.629C106.475 106.217 108.601 105.714 110.025 105.12V106.591C110.025 108.542 109.745 110.028 109.178 111.041C108.619 112.062 107.763 112.878 106.628 113.487C105.493 114.097 104.232 114.402 102.836 114.402C101.377 114.402 100.232 114.067 99.4035 113.388C98.5747 112.71 98.1603 111.803 98.1603 110.675C98.1603 109.944 98.3406 109.296 98.7009 108.74C99.0612 108.183 99.5657 107.749 100.223 107.444C100.872 107.139 102.016 106.865 103.656 106.629Z" fill="white"/>
<path d="M40.8455 0.412994L41.0967 -0.554949L40.9627 -0.589713L40.8244 -0.586781L40.8455 0.412994ZM39.4435 0.442698L39.4223 -0.557077L39.4223 -0.557075L39.4435 0.442698ZM43.434 1.08467L44.177 0.415309L43.9759 0.192167L43.6852 0.116728L43.434 1.08467ZM45.2076 3.05319L46.1713 2.78604L46.1083 2.55892L45.9506 2.38382L45.2076 3.05319ZM45.7533 5.02158L46.753 5.04369L46.7563 4.8964L46.7169 4.75443L45.7533 5.02158ZM45.6851 8.10263L46.645 8.38317L46.682 8.25659L46.6849 8.12474L45.6851 8.10263ZM44.9347 10.6703L45.8848 10.9821L45.8899 10.9666L45.8945 10.9508L44.9347 10.6703ZM43.9797 13.5802L44.9006 13.9701L44.9169 13.9316L44.9299 13.892L43.9797 13.5802ZM42.8201 16.3189V17.3189H43.4826L43.741 16.7088L42.8201 16.3189ZM42.0015 16.3189V15.3189H41.8237L41.6568 15.3802L42.0015 16.3189ZM39.2047 17.3459L38.86 16.4072L38.8105 16.4254L38.7632 16.4486L39.2047 17.3459ZM35.7258 19.0576L35.2844 18.1603L35.2433 18.1805L35.2043 18.2044L35.7258 19.0576ZM33.0654 20.6838L32.5438 19.8305L32.4988 19.8581L32.4569 19.8902L33.0654 20.6838ZM29.3818 23.5081L28.7734 22.7146L28.7347 22.7442L28.6991 22.7774L29.3818 23.5081ZM26.1757 26.5037L25.493 25.773L25.4129 25.8478L25.3509 25.9383L26.1757 26.5037ZM23.2425 30.7829L22.4177 30.2175L22.382 30.2695L22.3532 30.3256L23.2425 30.7829ZM21.8782 33.4361L20.9889 32.9788L20.967 33.0214L20.9492 33.0659L21.8782 33.4361ZM20.1729 37.7153L19.2439 37.3451L19.2218 37.4007L19.2064 37.4586L20.1729 37.7153ZM18.945 42.337L17.9785 42.0803L17.9585 42.1559L17.9504 42.2336L18.945 42.337ZM18.5358 46.2739L17.5411 46.1705L17.5401 46.1804L17.5393 46.1903L18.5358 46.2739ZM18.1265 51.1523L17.13 51.0687L17.1229 51.1528L17.1301 51.2368L18.1265 51.1523ZM18.4675 55.1748L17.4711 55.2592L17.4756 55.3132L17.486 55.3663L18.4675 55.1748ZM19.2861 59.3686L18.3046 59.5602L18.3197 59.6372L18.3465 59.7109L19.2861 59.3686ZM20.3775 62.3641L19.4379 62.7064L19.4557 62.7553L19.4784 62.802L20.3775 62.3641ZM21.8782 65.4452L20.9792 65.8831L21.0154 65.9575L21.0634 66.025L21.8782 65.4452ZM23.5836 67.8416L22.7689 68.4214L22.8033 68.4697L22.8432 68.5137L23.5836 67.8416ZM26.3804 70.9226L25.6399 71.5947L25.7002 71.6611L25.7712 71.7157L26.3804 70.9226ZM29.7229 73.4902L29.1138 74.2832L29.1694 74.3259L29.2305 74.3605L29.7229 73.4902ZM33.2018 75.4587L32.7093 76.329L32.741 76.3469L32.7739 76.3625L33.2018 75.4587ZM36.8172 77.1704L36.3893 78.0742L36.4674 78.1112L36.5507 78.1342L36.8172 77.1704ZM40.8419 78.283L40.5754 79.2469L40.6049 79.255L40.6348 79.2614L40.8419 78.283ZM46.5037 79.4812L46.2966 80.4595L46.399 80.4812H46.5037V79.4812ZM46.7083 79.4812L46.7877 78.4844L46.7481 78.4812H46.7083V79.4812ZM51.0058 79.8236L50.9264 80.8204L50.937 80.8212L50.9476 80.8219L51.0058 79.8236ZM53.939 79.9947L53.8808 80.993L54.9857 81.0575L54.9381 79.9517L53.939 79.9947ZM53.6662 73.6613L52.6663 73.6786L52.6666 73.6915L52.6671 73.7044L53.6662 73.6613ZM53.5298 65.7874L54.5296 65.7701L54.5293 65.752L54.5283 65.7339L53.5298 65.7874ZM52.9841 55.6028H51.9841V55.6295L51.9855 55.6563L52.9841 55.6028ZM52.9841 47.0443L51.9849 47.0051L51.9841 47.0247V47.0443H52.9841ZM53.1886 41.8234L52.1966 41.6976L52.1911 41.7408L52.1894 41.7843L53.1886 41.8234ZM54.1437 34.2919L53.1621 34.1011L53.1558 34.1335L53.1517 34.1661L54.1437 34.2919ZM55.508 27.274L54.5503 26.9864L54.5359 27.0342L54.5264 27.0832L55.508 27.274ZM57.2816 21.3686L56.3682 20.9614L56.3422 21.0198L56.3238 21.0809L57.2816 21.3686ZM59.5327 16.3189L58.6801 15.7962L58.6459 15.852L58.6193 15.9117L59.5327 16.3189ZM62.2613 11.8685L61.5212 11.196L61.4579 11.2656L61.4088 11.3458L62.2613 11.8685ZM66.1494 7.58924L65.543 6.79409L65.4706 6.84934L65.4093 6.91676L66.1494 7.58924ZM69.6284 4.93605L69.1743 4.0451L69.0938 4.08612L69.022 4.1409L69.6284 4.93605ZM73.9941 2.71084V1.71084H73.754L73.54 1.8199L73.9941 2.71084ZM74.1987 2.71084V3.71084H74.3153L74.4288 3.68402L74.1987 2.71084ZM78.9056 1.59818L78.7775 0.606421L78.726 0.613067L78.6755 0.625006L78.9056 1.59818ZM83.5441 0.999148L83.5732 -0.000426827L83.4943 -0.00272988L83.416 0.00738408L83.5441 0.999148ZM89.4105 1.17032L89.5381 0.178494L89.4891 0.172186L89.4397 0.170744L89.4105 1.17032ZM94.7314 1.85488L94.9932 0.889768L94.927 0.871808L94.859 0.863055L94.7314 1.85488ZM99.7791 3.22435L100.225 2.32951L100.137 2.28522L100.041 2.25924L99.7791 3.22435ZM105.441 6.04871L106.018 5.23203L105.956 5.18796L105.887 5.15387L105.441 6.04871ZM111.376 10.2423L112.121 9.57529L112.045 9.49095L111.953 9.42563L111.376 10.2423ZM116.969 16.4902L117.825 15.9721L117.776 15.8925L117.714 15.8232L116.969 16.4902ZM119.561 20.7694L120.457 20.3249L120.438 20.2873L120.417 20.2513L119.561 20.7694ZM121.812 25.3055L122.765 25.0017L122.742 24.9292L122.708 24.8609L121.812 25.3055ZM123.313 30.0127L124.307 29.8996L124.296 29.8023L124.266 29.709L123.313 30.0127ZM123.927 35.4045L124.926 35.3631L124.925 35.3271L124.921 35.2914L123.927 35.4045ZM124.2 41.9947L125.198 42.0633L125.201 42.0083L125.199 41.9533L124.2 41.9947ZM123.859 46.9586L124.828 47.2051L124.85 47.1174L124.857 47.0272L123.859 46.9586ZM122.836 50.9812L123.79 51.28L123.798 51.254L123.805 51.2277L122.836 50.9812ZM121.335 55.7739L122.232 56.2152L122.266 56.1462L122.289 56.0727L121.335 55.7739ZM119.357 59.7965L120.207 60.322L120.233 60.281L120.254 60.2378L119.357 59.7965ZM117.242 63.2199L118.032 63.8332L118.065 63.7909L118.093 63.7454L117.242 63.2199ZM114.65 66.5577L115.356 67.2655L115.401 67.2209L115.44 67.1711L114.65 66.5577ZM111.648 69.5533L112.314 70.2997L112.335 70.281L112.355 70.2611L111.648 69.5533ZM109.056 71.864L109.604 72.701L109.666 72.6601L109.722 72.6105L109.056 71.864ZM104.213 75.0307L104.727 75.8888L104.744 75.8785L104.76 75.8676L104.213 75.0307ZM99.7791 77.684L100.206 78.5881L100.251 78.5672L100.293 78.5421L99.7791 77.684ZM95.0723 79.9091L95.4146 80.8487L95.458 80.8329L95.4997 80.8131L95.0723 79.9091ZM90.8431 81.4496L91.1505 82.4012L91.1681 82.3955L91.1854 82.3892L90.8431 81.4496ZM83.9534 83.6749L84.1277 84.6596L84.1954 84.6477L84.2608 84.6265L83.9534 83.6749ZM78.6326 84.6163L78.8047 85.6014L78.8068 85.601L78.6326 84.6163ZM73.2438 85.5578L73.3543 86.5517L73.3852 86.5482L73.4159 86.5429L73.2438 85.5578ZM67.8548 86.1568L67.8789 87.1565L67.9222 87.1555L67.9653 87.1507L67.8548 86.1568ZM64.3077 86.2425L64.2835 85.2428L63.1533 85.2701L63.3184 86.3885L64.3077 86.2425ZM64.6488 88.5533L65.642 88.4366L65.6402 88.4219L65.6381 88.4073L64.6488 88.5533ZM65.2626 93.7741L64.2695 93.8908L64.2716 93.9091L64.2744 93.9272L65.2626 93.7741ZM66.2177 99.9362L65.2295 100.089L65.2306 100.096L65.2318 100.104L66.2177 99.9362ZM67.1044 105.157L68.0937 105.011L68.0921 105L68.0903 104.99L67.1044 105.157ZM67.7866 109.779L68.7825 109.689L68.78 109.661L68.7758 109.633L67.7866 109.779ZM68.1959 114.315L69.1957 114.335L69.1968 114.28L69.1919 114.225L68.1959 114.315ZM68.1277 117.738L69.1123 117.912L69.1259 117.836L69.1275 117.758L68.1277 117.738ZM67.7184 120.049L68.6343 120.45L68.6822 120.341L68.7031 120.223L67.7184 120.049ZM66.968 121.761L67.7214 122.418L67.8223 122.303L67.8839 122.162L66.968 121.761ZM65.399 123.558L66.0577 124.31L66.1082 124.266L66.1524 124.216L65.399 123.558ZM64.5805 124.274V125.274H64.9563L65.2391 125.027L64.5805 124.274ZM53.0522 124.274L52.5879 125.16L52.806 125.274H53.0522V124.274ZM50.8694 123.13L49.8819 123.287L49.9609 123.783L50.4051 124.016L50.8694 123.13ZM50.8011 122.702L51.7887 122.544L51.7472 122.285L51.5831 122.079L50.8011 122.702ZM49.6415 121.247L48.7447 121.69L48.7924 121.786L48.8595 121.87L49.6415 121.247ZM48.7547 119.45L47.7712 119.631L47.7964 119.767L47.858 119.892L48.7547 119.45ZM48.1408 116.112L47.1443 116.028L47.1331 116.161L47.1573 116.293L48.1408 116.112ZM48.5502 111.234L47.5694 111.038L47.5584 111.094L47.5537 111.15L48.5502 111.234ZM49.5051 106.441L48.5286 106.225L48.5264 106.235L48.5244 106.245L49.5051 106.441ZM50.733 100.878L51.7095 101.093L51.7142 101.072L51.718 101.05L50.733 100.878ZM52.0973 93.0894L53.0823 93.2619L53.0838 93.2534L53.0852 93.2448L52.0973 93.0894ZM53.1205 86.5848L54.1084 86.7402L54.2855 85.6143L53.1461 85.5852L53.1205 86.5848ZM49.7779 86.4993L49.4786 87.4534L49.6123 87.4954L49.7524 87.499L49.7779 86.4993ZM48.9593 86.2425L49.2586 85.2883L49.1855 85.2654L49.1097 85.2538L48.9593 86.2425ZM44.4573 85.5578L44.6076 84.5692L44.5329 84.5578H44.4573V85.5578ZM44.2526 85.5578L44.0562 86.5383L44.1534 86.5578H44.2526V85.5578ZM37.8404 84.274L37.5997 85.2446L37.6218 85.25L37.6441 85.2545L37.8404 84.274ZM31.974 82.8191L31.663 83.7695L31.6978 83.7809L31.7333 83.7897L31.974 82.8191ZM27.2672 81.2784L26.9048 82.2105L26.9302 82.2204L26.9561 82.2288L27.2672 81.2784ZM22.4239 79.3957L21.9487 80.2756L22.0035 80.3052L22.0616 80.3277L22.4239 79.3957ZM17.035 76.4857L16.4678 77.3092L16.5123 77.3399L16.5599 77.3656L17.035 76.4857ZM13.5561 74.0893L12.882 74.828L12.9325 74.8741L12.9888 74.9128L13.5561 74.0893ZM10.5546 71.3506L9.84615 72.0564L9.86296 72.0732L9.88056 72.0893L10.5546 71.3506ZM8.50819 69.2964L7.71055 69.8996L7.75165 69.9539L7.79975 70.0022L8.50819 69.2964ZM5.98426 65.9586L5.09864 66.423L5.13692 66.496L5.18662 66.5617L5.98426 65.9586ZM4.27884 62.7063L3.35782 63.0959L3.37397 63.134L3.39322 63.1708L4.27884 62.7063ZM2.50528 58.5126L1.53881 58.7694L1.55687 58.8374L1.58426 58.9021L2.50528 58.5126ZM1.48208 54.6614L0.491457 54.798L0.499844 54.8588L0.515604 54.9182L1.48208 54.6614ZM0.868137 50.211L-0.131762 50.2252L-0.130887 50.2867L-0.122481 50.3476L0.868137 50.211ZM0.799988 45.4181L-0.192705 45.2974L-0.200874 45.3646L-0.199911 45.4323L0.799988 45.4181ZM1.41381 40.3685L0.436628 40.1561L0.426736 40.2016L0.421117 40.2479L1.41381 40.3685ZM2.43702 35.6613L1.48843 35.3448L1.47132 35.3961L1.45984 35.4489L2.43702 35.6613ZM3.66502 31.9812L2.76719 31.5409L2.73766 31.6011L2.71644 31.6647L3.66502 31.9812ZM5.30205 28.6433L4.41207 28.1873L4.40808 28.1951L4.40421 28.203L5.30205 28.6433ZM7.75782 23.8505L6.92102 23.303L6.89201 23.3473L6.86785 23.3945L7.75782 23.8505ZM11.5096 18.1162L10.717 17.5066L10.6937 17.5368L10.6728 17.5687L11.5096 18.1162ZM15.2615 13.2378L14.5572 12.5279L14.5096 12.5751L14.4688 12.6282L15.2615 13.2378ZM18.1946 10.328L17.5464 9.56652L17.5174 9.59121L17.4904 9.61803L18.1946 10.328ZM22.0147 7.07573L21.4337 6.26184L21.399 6.28664L21.3665 6.3143L22.0147 7.07573ZM25.9711 4.25137L25.5419 3.34818L25.462 3.38612L25.3901 3.43748L25.9711 4.25137ZM30.4733 2.11169L30.1796 1.1558L30.1099 1.17721L30.0441 1.2085L30.4733 2.11169ZM33.8157 1.08467L33.6522 0.0981275L33.5861 0.109088L33.522 0.128779L33.8157 1.08467ZM37.4311 0.485519L37.4099 -0.514255L37.3383 -0.512732L37.2676 -0.501026L37.4311 0.485519ZM64.3077 80.3371L63.3078 80.3531L63.3264 81.512L64.47 81.3238L64.3077 80.3371ZM64.0347 63.3055L65.0347 63.2895L65.0343 63.2772L64.0347 63.3055ZM68.4688 79.6524L68.6311 80.6391L68.6787 80.6313L68.7253 80.6189L68.4688 79.6524ZM72.0159 78.7109L72.2724 79.6774L72.3025 79.6694L72.332 79.6596L72.0159 78.7109ZM76.3815 77.256L76.6977 78.2047L76.7513 78.1869L76.8025 78.1631L76.3815 77.256ZM81.3612 74.9452L81.7822 75.8522L81.8291 75.8305L81.8735 75.804L81.3612 74.9452ZM85.5223 72.4631L86.0346 73.322L86.0893 73.2893L86.1394 73.2501L85.5223 72.4631ZM90.9795 68.1839L91.5966 68.9708L91.6551 68.9249L91.7062 68.8709L90.9795 68.1839ZM94.4585 64.5037L95.1852 65.1907L95.2324 65.1407L95.2724 65.0848L94.4585 64.5037ZM97.3916 60.3956L98.2054 60.9767L98.2258 60.9482L98.2441 60.9183L97.3916 60.3956ZM100.12 55.9451L100.973 56.4678L101.03 56.3752L101.065 56.2725L100.12 55.9451ZM101.485 52.0082L102.429 52.3356L102.439 52.3068L102.448 52.2775L101.485 52.0082ZM102.849 47.1298L103.812 47.3991L103.831 47.3313L103.84 47.2615L102.849 47.1298ZM103.736 40.4541L104.727 40.5857L104.733 40.543L104.735 40.5L103.736 40.4541ZM103.94 36.0036L104.939 36.0496L104.942 35.996L104.938 35.9424L103.94 36.0036ZM103.667 31.5532L104.665 31.492L104.662 31.4404L104.654 31.3894L103.667 31.5532ZM102.985 27.4452L103.972 27.2814L103.965 27.2426L103.956 27.2045L102.985 27.4452ZM102.03 23.5937L103.001 23.353L102.979 23.2633L102.94 23.1792L102.03 23.5937ZM100.393 19.9992L101.303 19.5847L101.275 19.5236L101.24 19.4667L100.393 19.9992ZM98.3468 16.7469L99.1931 16.2143L99.1635 16.1672L99.1288 16.1236L98.3468 16.7469ZM95.9593 13.7513L96.7413 13.1281L96.6783 13.0491L96.6008 12.9843L95.9593 13.7513ZM93.5033 11.6973L94.1449 10.9302L94.0789 10.875L94.0045 10.8319L93.5033 11.6973ZM90.8431 10.1568L91.3443 9.29141L91.2178 9.21815L91.0756 9.18417L90.8431 10.1568ZM86.5455 9.12977L86.7779 8.15715L86.6836 8.1346L86.5866 8.13061L86.5455 9.12977ZM82.3844 8.9586L82.4255 7.95945L82.2854 7.95368L82.1491 7.98668L82.3844 8.9586ZM78.4963 9.89997L78.261 8.92805L78.1757 8.9487L78.0954 8.98387L78.4963 9.89997ZM75.563 11.1838L75.1621 10.2677L75.024 10.3281L74.9099 10.4266L75.563 11.1838ZM72.2887 14.008L71.6356 13.2508L71.5269 13.3445L71.449 13.4651L72.2887 14.008ZM69.3555 18.5442L68.5158 18.0012L68.472 18.0689L68.4397 18.1427L69.3555 18.5442ZM67.8548 21.9676L68.6367 22.5911L68.7182 22.4888L68.7707 22.3691L67.8548 21.9676ZM67.6501 22.2243L66.8683 21.6009L66.76 21.7367L66.7038 21.9011L67.6501 22.2243ZM66.4222 25.819L65.4759 25.4957L65.4575 25.5497L65.4453 25.6055L66.4222 25.819ZM65.2626 31.1252L64.2857 30.9118L64.2789 30.9429L64.2741 30.9744L65.2626 31.1252ZM64.0347 39.1703L63.0462 39.0195L63.0347 39.0945V39.1703H64.0347ZM64.0347 39.7695L65.0337 39.8146L65.0347 39.792V39.7695H64.0347ZM63.6255 48.8416L62.6265 48.7965L62.6248 48.8332L62.6259 48.8699L63.6255 48.8416ZM110.322 114.09L111.316 113.978L111.102 112.07L109.661 113.339L110.322 114.09ZM106.259 116.68L105.878 115.756L105.876 115.757L106.259 116.68ZM111.133 117.008L110.241 117.461L110.519 118.008H111.133V117.008ZM115.186 117.008V118.008H116.859L116.067 116.535L115.186 117.008ZM114.195 114.166L115.182 114.001L115.18 113.993L114.195 114.166ZM113.403 96.7677L114.356 96.4652L114.355 96.4634L113.403 96.7677ZM110.799 93.9252L110.312 94.7983L110.313 94.7989L110.799 93.9252ZM97.9622 94.4968L97.394 93.6739L97.394 93.6739L97.9622 94.4968ZM94.647 99.9989L93.6699 99.786L93.4432 100.827L94.496 100.987L94.647 99.9989ZM98.5387 100.593L98.3877 101.582L99.2943 101.72L99.5105 100.829L98.5387 100.593ZM100.512 97.0192L99.937 96.2009L99.9332 96.2036L100.512 97.0192ZM109.024 97.4994L108.321 98.2106L108.329 98.2178L109.024 97.4994ZM110.052 100.936L111.051 100.963L111.052 100.95V100.936H110.052ZM110.025 101.965L110.364 102.906L111.006 102.674L111.024 101.991L110.025 101.965ZM103.043 103.337L103.162 104.33L103.162 104.33L103.043 103.337ZM97.755 104.655L97.2997 103.765L97.2996 103.765L97.755 104.655ZM95.0073 107.139L95.8505 107.677L95.8537 107.672L95.0073 107.139ZM96.1425 115.72L96.7954 114.963L96.7906 114.959L96.1425 115.72ZM110.025 105.12H111.025V103.619L109.639 104.197L110.025 105.12ZM103.656 106.629L103.798 107.619L103.8 107.618L103.656 106.629ZM109.178 111.041L108.305 110.552L108.3 110.562L109.178 111.041ZM106.628 113.487L106.155 112.606L106.155 112.606L106.628 113.487ZM99.4035 113.388L98.7702 114.162L98.7703 114.162L99.4035 113.388ZM98.7009 108.74L97.8615 108.196L97.8615 108.196L98.7009 108.74ZM100.223 107.444L100.644 108.352L100.649 108.349L100.223 107.444ZM40.8244 -0.586781L39.4223 -0.557077L39.4647 1.44247L40.8667 1.41277L40.8244 -0.586781ZM43.6852 0.116728L41.0967 -0.554949L40.5944 1.38094L43.1829 2.05262L43.6852 0.116728ZM45.9506 2.38382L44.177 0.415309L42.6911 1.75403L44.4647 3.72255L45.9506 2.38382ZM46.7169 4.75443L46.1713 2.78604L44.244 3.32033L44.7896 5.28872L46.7169 4.75443ZM46.6849 8.12474L46.753 5.04369L44.7535 4.99946L44.6854 8.08052L46.6849 8.12474ZM45.8945 10.9508L46.645 8.38317L44.7253 7.82209L43.9748 10.3898L45.8945 10.9508ZM44.9299 13.892L45.8848 10.9821L43.9845 10.3585L43.0296 13.2684L44.9299 13.892ZM43.741 16.7088L44.9006 13.9701L43.0589 13.1903L41.8993 15.929L43.741 16.7088ZM42.0015 17.3189H42.8201V15.3189H42.0015V17.3189ZM39.5494 18.2846L42.3462 17.2576L41.6568 15.3802L38.86 16.4072L39.5494 18.2846ZM36.1673 19.9549L39.6462 18.2432L38.7632 16.4486L35.2844 18.1603L36.1673 19.9549ZM33.5869 21.537L36.2474 19.9108L35.2043 18.2044L32.5438 19.8305L33.5869 21.537ZM29.9903 24.3017L33.6738 21.4774L32.4569 19.8902L28.7734 22.7146L29.9903 24.3017ZM26.8584 27.2344L30.0645 24.2388L28.6991 22.7774L25.493 25.773L26.8584 27.2344ZM24.0673 31.3483L27.0005 27.069L25.3509 25.9383L22.4177 30.2175L24.0673 31.3483ZM22.7675 33.8934L24.1318 31.2402L22.3532 30.3256L20.9889 32.9788L22.7675 33.8934ZM21.1019 38.0855L22.8071 33.8063L20.9492 33.0659L19.2439 37.3451L21.1019 38.0855ZM19.9115 42.5938L21.1394 37.9721L19.2064 37.4586L17.9785 42.0803L19.9115 42.5938ZM19.5304 46.3773L19.9396 42.4404L17.9504 42.2336L17.5411 46.1705L19.5304 46.3773ZM19.123 51.2359L19.5323 46.3575L17.5393 46.1903L17.13 51.0687L19.123 51.2359ZM19.4639 55.0903L19.1229 51.0679L17.1301 51.2368L17.4711 55.2592L19.4639 55.0903ZM20.2676 59.177L19.449 54.9832L17.486 55.3663L18.3046 59.5602L20.2676 59.177ZM21.3171 62.0218L20.2257 59.0263L18.3465 59.7109L19.4379 62.7064L21.3171 62.0218ZM22.7772 65.0073L21.2765 61.9262L19.4784 62.802L20.9792 65.8831L22.7772 65.0073ZM24.3984 67.2617L22.6929 64.8654L21.0634 66.025L22.7689 68.4214L24.3984 67.2617ZM27.1208 70.2505L24.3241 67.1694L22.8432 68.5137L25.6399 71.5947L27.1208 70.2505ZM30.3321 72.6971L26.9895 70.1296L25.7712 71.7157L29.1138 74.2832L30.3321 72.6971ZM33.6943 74.5883L30.2154 72.6198L29.2305 74.3605L32.7093 76.329L33.6943 74.5883ZM37.2451 76.2665L33.6297 74.5548L32.7739 76.3625L36.3893 78.0742L37.2451 76.2665ZM41.1083 77.3192L37.0837 76.2065L36.5507 78.1342L40.5754 79.2469L41.1083 77.3192ZM46.7107 78.5029L41.0489 77.3047L40.6348 79.2614L46.2966 80.4595L46.7107 78.5029ZM46.7083 78.4812H46.5037V80.4812H46.7083V78.4812ZM51.0852 78.8267L46.7877 78.4844L46.6289 80.4781L50.9264 80.8204L51.0852 78.8267ZM53.9973 78.9964L51.0641 78.8253L50.9476 80.8219L53.8808 80.993L53.9973 78.9964ZM52.6671 73.7044L52.9399 80.0378L54.9381 79.9517L54.6653 73.6183L52.6671 73.7044ZM52.5299 65.8047L52.6663 73.6786L54.666 73.644L54.5296 65.7701L52.5299 65.8047ZM51.9855 55.6563L52.5312 65.8409L54.5283 65.7339L53.9827 55.5493L51.9855 55.6563ZM51.9841 47.0443V55.6028H53.9841V47.0443H51.9841ZM52.1894 41.7843L51.9849 47.0051L53.9833 47.0834L54.1879 41.8626L52.1894 41.7843ZM53.1517 34.1661L52.1966 41.6976L54.1807 41.9492L55.1358 34.4177L53.1517 34.1661ZM54.5264 27.0832L53.1621 34.1011L55.1253 34.4828L56.4896 27.4648L54.5264 27.0832ZM56.3238 21.0809L54.5503 26.9864L56.4657 27.5616L58.2393 21.6562L56.3238 21.0809ZM58.6193 15.9117L56.3682 20.9614L58.1949 21.7757L60.446 16.7261L58.6193 15.9117ZM61.4088 11.3458L58.6801 15.7962L60.3852 16.8416L63.1138 12.3912L61.4088 11.3458ZM65.4093 6.91676L61.5212 11.196L63.0014 12.541L66.8895 8.26171L65.4093 6.91676ZM69.022 4.1409L65.543 6.79409L66.7558 8.38439L70.2348 5.7312L69.022 4.1409ZM73.54 1.8199L69.1743 4.0451L70.0825 5.82699L74.4483 3.60179L73.54 1.8199ZM74.1987 1.71084H73.9941V3.71084H74.1987V1.71084ZM78.6755 0.625006L73.9687 1.73767L74.4288 3.68402L79.1356 2.57136L78.6755 0.625006ZM83.416 0.00738408L78.7775 0.606421L79.0337 2.58995L83.6721 1.99091L83.416 0.00738408ZM89.4397 0.170744L83.5732 -0.000426827L83.5149 1.99872L89.3814 2.16989L89.4397 0.170744ZM94.859 0.863055L89.5381 0.178494L89.2829 2.16214L94.6038 2.8467L94.859 0.863055ZM100.041 2.25924L94.9932 0.889768L94.4695 2.81999L99.5173 4.18946L100.041 2.25924ZM105.887 5.15387L100.225 2.32951L99.3327 4.1192L104.995 6.94356L105.887 5.15387ZM111.953 9.42563L106.018 5.23203L104.864 6.86539L110.799 11.059L111.953 9.42563ZM117.714 15.8232L112.121 9.57529L110.631 10.9093L116.224 17.1572L117.714 15.8232ZM120.417 20.2513L117.825 15.9721L116.114 17.0083L118.706 21.2875L120.417 20.2513ZM122.708 24.8609L120.457 20.3249L118.666 21.214L120.917 25.75L122.708 24.8609ZM124.266 29.709L122.765 25.0017L120.86 25.6092L122.36 30.3165L124.266 29.709ZM124.921 35.2914L124.307 29.8996L122.32 30.1258L122.934 35.5176L124.921 35.2914ZM125.199 41.9533L124.926 35.3631L122.928 35.4459L123.201 42.0361L125.199 41.9533ZM124.857 47.0272L125.198 42.0633L123.202 41.9262L122.861 46.8901L124.857 47.0272ZM123.805 51.2277L124.828 47.2051L122.89 46.7121L121.867 50.7347L123.805 51.2277ZM122.289 56.0727L123.79 51.28L121.881 50.6824L120.381 55.4751L122.289 56.0727ZM120.254 60.2378L122.232 56.2152L120.438 55.3326L118.459 59.3552L120.254 60.2378ZM118.093 63.7454L120.207 60.322L118.506 59.2709L116.391 62.6943L118.093 63.7454ZM115.44 67.1711L118.032 63.8332L116.452 62.6065L113.86 65.9444L115.44 67.1711ZM112.355 70.2611L115.356 67.2655L113.944 65.8499L110.942 68.8455L112.355 70.2611ZM109.722 72.6105L112.314 70.2997L110.983 68.8068L108.391 71.1175L109.722 72.6105ZM104.76 75.8676L109.604 72.701L108.509 71.027L103.666 74.1937L104.76 75.8676ZM100.293 78.5421L104.727 75.8888L103.7 74.1726L99.2656 76.8259L100.293 78.5421ZM95.4997 80.8131L100.206 78.5881L99.3517 76.7799L94.645 79.005L95.4997 80.8131ZM91.1854 82.3892L95.4146 80.8487L94.7301 78.9695L90.5009 80.51L91.1854 82.3892ZM84.2608 84.6265L91.1505 82.4012L90.5358 80.498L83.6461 82.7233L84.2608 84.6265ZM78.8068 85.601L84.1277 84.6596L83.7792 82.6902L78.4584 83.6316L78.8068 85.601ZM73.4159 86.5429L78.8047 85.6014L78.4605 83.6312L73.0717 84.5727L73.4159 86.5429ZM67.9653 87.1507L73.3543 86.5517L73.1333 84.5639L67.7443 85.163L67.9653 87.1507ZM64.3318 87.2422L67.8789 87.1565L67.8307 85.1571L64.2835 85.2428L64.3318 87.2422ZM65.6381 88.4073L65.297 86.0964L63.3184 86.3885L63.6595 88.6994L65.6381 88.4073ZM66.2558 93.6573L65.642 88.4366L63.6556 88.6701L64.2695 93.8908L66.2558 93.6573ZM67.2059 99.783L66.2508 93.6209L64.2744 93.9272L65.2295 100.089L67.2059 99.783ZM68.0903 104.99L67.2035 99.7687L65.2318 100.104L66.1186 105.324L68.0903 104.99ZM68.7758 109.633L68.0937 105.011L66.1152 105.303L66.7973 109.925L68.7758 109.633ZM69.1919 114.225L68.7825 109.689L66.7906 109.868L67.2 114.405L69.1919 114.225ZM69.1275 117.758L69.1957 114.335L67.1961 114.295L67.1279 117.718L69.1275 117.758ZM68.7031 120.223L69.1123 117.912L67.143 117.564L66.7337 119.875L68.7031 120.223ZM67.8839 122.162L68.6343 120.45L66.8025 119.647L66.0522 121.359L67.8839 122.162ZM66.1524 124.216L67.7214 122.418L66.2147 121.103L64.6457 122.9L66.1524 124.216ZM65.2391 125.027L66.0577 124.31L64.7404 122.805L63.9219 123.522L65.2391 125.027ZM53.0522 125.274H64.5805V123.274H53.0522V125.274ZM50.4051 124.016L52.5879 125.16L53.5166 123.389L51.3337 122.244L50.4051 124.016ZM49.8136 122.86L49.8819 123.287L51.8569 122.972L51.7887 122.544L49.8136 122.86ZM48.8595 121.87L50.0191 123.325L51.5831 122.079L50.4235 120.624L48.8595 121.87ZM47.858 119.892L48.7447 121.69L50.5383 120.805L49.6515 119.007L47.858 119.892ZM47.1573 116.293L47.7712 119.631L49.7382 119.269L49.1243 115.931L47.1573 116.293ZM47.5537 111.15L47.1443 116.028L49.1373 116.195L49.5467 111.317L47.5537 111.15ZM48.5244 106.245L47.5694 111.038L49.5309 111.429L50.4858 106.636L48.5244 106.245ZM49.7565 100.662L48.5286 106.225L50.4816 106.656L51.7095 101.093L49.7565 100.662ZM51.1123 92.9168L49.748 100.705L51.718 101.05L53.0823 93.2619L51.1123 92.9168ZM52.1326 86.4294L51.1095 92.934L53.0852 93.2448L54.1084 86.7402L52.1326 86.4294ZM49.7524 87.499L53.0949 87.5845L53.1461 85.5852L49.8035 85.4996L49.7524 87.499ZM48.66 87.1966L49.4786 87.4534L50.0773 85.5452L49.2586 85.2883L48.66 87.1966ZM44.3069 86.5464L48.809 87.2311L49.1097 85.2538L44.6076 84.5692L44.3069 86.5464ZM44.2526 86.5578H44.4573V84.5578H44.2526V86.5578ZM37.6441 85.2545L44.0562 86.5383L44.4489 84.5773L38.0367 83.2934L37.6441 85.2545ZM31.7333 83.7897L37.5997 85.2446L38.0811 83.3034L32.2147 81.8485L31.7333 83.7897ZM26.9561 82.2288L31.663 83.7695L32.2851 81.8687L27.5782 80.3281L26.9561 82.2288ZM22.0616 80.3277L26.9048 82.2105L27.6295 80.3464L22.7862 78.4636L22.0616 80.3277ZM16.5599 77.3656L21.9487 80.2756L22.899 78.5158L17.5102 75.6058L16.5599 77.3656ZM12.9888 74.9128L16.4678 77.3092L17.6023 75.6622L14.1233 73.2658L12.9888 74.9128ZM9.88056 72.0893L12.882 74.828L14.2301 73.3506L11.2286 70.6119L9.88056 72.0893ZM7.79975 70.0022L9.84615 72.0564L11.263 70.6448L9.21663 68.5907L7.79975 70.0022ZM5.18662 66.5617L7.71055 69.8996L9.30583 68.6933L6.7819 65.3554L5.18662 66.5617ZM3.39322 63.1708L5.09864 66.423L6.86989 65.4942L5.16446 62.2419L3.39322 63.1708ZM1.58426 58.9021L3.35782 63.0959L5.19986 62.3168L3.4263 58.1231L1.58426 58.9021ZM0.515604 54.9182L1.53881 58.7694L3.47175 58.2559L2.44855 54.4046L0.515604 54.9182ZM-0.122481 50.3476L0.491457 54.798L2.47269 54.5247L1.85876 50.0743L-0.122481 50.3476ZM-0.199911 45.4323L-0.131762 50.2252L1.86804 50.1967L1.79989 45.4039L-0.199911 45.4323ZM0.421117 40.2479L-0.192705 45.2974L1.79268 45.5388L2.4065 40.4892L0.421117 40.2479ZM1.45984 35.4489L0.436628 40.1561L2.39099 40.5809L3.4142 35.8737L1.45984 35.4489ZM2.71644 31.6647L1.48843 35.3448L3.3856 35.9778L4.6136 32.2977L2.71644 31.6647ZM4.40421 28.203L2.76719 31.5409L4.56285 32.4215L6.19988 29.0837L4.40421 28.203ZM6.86785 23.3945L4.41207 28.1873L6.19202 29.0994L8.6478 24.3065L6.86785 23.3945ZM10.6728 17.5687L6.92102 23.303L8.59463 24.398L12.3465 18.6637L10.6728 17.5687ZM14.4688 12.6282L10.717 17.5066L12.3023 18.7259L16.0541 13.8475L14.4688 12.6282ZM17.4904 9.61803L14.5572 12.5279L15.9657 13.9478L18.8989 11.0379L17.4904 9.61803ZM21.3665 6.3143L17.5464 9.56652L18.8429 11.0894L22.663 7.83717L21.3665 6.3143ZM25.3901 3.43748L21.4337 6.26184L22.5958 7.88962L26.5521 5.06526L25.3901 3.43748ZM30.0441 1.2085L25.5419 3.34818L26.4004 5.15456L30.9025 3.01488L30.0441 1.2085ZM33.522 0.128779L30.1796 1.1558L30.767 3.06758L34.1095 2.04057L33.522 0.128779ZM37.2676 -0.501026L33.6522 0.0981275L33.9792 2.07122L37.5946 1.47206L37.2676 -0.501026ZM39.4223 -0.557075L37.4099 -0.514255L37.4524 1.48529L39.4648 1.44247L39.4223 -0.557075ZM65.3076 80.321L65.0346 63.2895L63.0349 63.3215L63.3078 80.3531L65.3076 80.321ZM68.3064 78.6657L64.1453 79.3503L64.47 81.3238L68.6311 80.6391L68.3064 78.6657ZM71.7593 77.7444L68.2122 78.6858L68.7253 80.6189L72.2724 79.6774L71.7593 77.7444ZM76.0654 76.3073L71.6997 77.7622L72.332 79.6596L76.6977 78.2047L76.0654 76.3073ZM80.9403 74.0381L75.9606 76.3489L76.8025 78.1631L81.7822 75.8522L80.9403 74.0381ZM85.01 71.6043L80.849 74.0863L81.8735 75.804L86.0346 73.322L85.01 71.6043ZM90.3625 67.397L84.9053 71.6762L86.1394 73.2501L91.5966 68.9708L90.3625 67.397ZM93.7318 63.8167L90.2529 67.4969L91.7062 68.8709L95.1852 65.1907L93.7318 63.8167ZM96.5777 59.8145L93.6447 63.9226L95.2724 65.0848L98.2054 60.9767L96.5777 59.8145ZM99.2677 55.4224L96.5391 59.8729L98.2441 60.9183L100.973 56.4678L99.2677 55.4224ZM100.54 51.6807L99.1753 55.6176L101.065 56.2725L102.429 52.3356L100.54 51.6807ZM101.886 46.8605L100.521 51.7389L102.448 52.2775L103.812 47.3991L101.886 46.8605ZM102.744 40.3224L101.858 46.9981L103.84 47.2615L104.727 40.5857L102.744 40.3224ZM102.941 35.9577L102.737 40.4081L104.735 40.5L104.939 36.0496L102.941 35.9577ZM102.669 31.6144L102.942 36.0649L104.938 35.9424L104.665 31.492L102.669 31.6144ZM101.999 27.609L102.681 31.717L104.654 31.3894L103.972 27.2814L101.999 27.609ZM101.06 23.8343L102.015 27.6858L103.956 27.2045L103.001 23.353L101.06 23.8343ZM99.4831 20.4137L101.12 24.0082L102.94 23.1792L101.303 19.5847L99.4831 20.4137ZM97.5004 17.2794L99.5468 20.5318L101.24 19.4667L99.1931 16.2143L97.5004 17.2794ZM95.1773 14.3746L97.5648 17.3701L99.1288 16.1236L96.7413 13.1281L95.1773 14.3746ZM92.8618 12.4644L95.3177 14.5184L96.6008 12.9843L94.1449 10.9302L92.8618 12.4644ZM90.342 11.0222L93.0022 12.5627L94.0045 10.8319L91.3443 9.29141L90.342 11.0222ZM86.3131 10.1024L90.6107 11.1294L91.0756 9.18417L86.7779 8.15715L86.3131 10.1024ZM82.3433 9.95776L86.5044 10.1289L86.5866 8.13061L82.4255 7.95945L82.3433 9.95776ZM78.7316 10.8719L82.6198 9.93052L82.1491 7.98668L78.261 8.92805L78.7316 10.8719ZM75.964 12.0999L78.8973 10.8161L78.0954 8.98387L75.1621 10.2677L75.964 12.0999ZM72.9419 14.7653L76.2162 11.941L74.9099 10.4266L71.6356 13.2508L72.9419 14.7653ZM70.1953 19.0872L73.1285 14.551L71.449 13.4651L68.5158 18.0012L70.1953 19.0872ZM68.7707 22.3691L70.2714 18.9457L68.4397 18.1427L66.939 21.5661L68.7707 22.3691ZM68.432 22.8477L68.6367 22.5911L67.0729 21.3442L66.8683 21.6009L68.432 22.8477ZM67.3685 26.1422L68.5964 22.5476L66.7038 21.9011L65.4759 25.4957L67.3685 26.1422ZM66.2396 31.3387L67.3992 26.0325L65.4453 25.6055L64.2857 30.9118L66.2396 31.3387ZM65.0233 39.3212L66.2512 31.2761L64.2741 30.9744L63.0462 39.0195L65.0233 39.3212ZM65.0347 39.7695V39.1703H63.0347V39.7695H65.0347ZM64.6244 48.8867L65.0337 39.8146L63.0357 39.7244L62.6265 48.7965L64.6244 48.8867ZM65.0343 63.2772L64.6251 48.8133L62.6259 48.8699L63.0351 63.3338L65.0343 63.2772ZM104.968 123.6C95.2495 123.6 87.3721 115.726 87.3721 106.015H85.3721C85.3721 116.832 94.146 125.6 104.968 125.6V123.6ZM122.564 106.015C122.564 115.726 114.687 123.6 104.968 123.6V125.6C115.79 125.6 124.564 116.832 124.564 106.015H122.564ZM104.968 88.4296C114.687 88.4296 122.564 96.3034 122.564 106.015H124.564C124.564 95.1977 115.79 86.4296 104.968 86.4296V88.4296ZM87.3721 106.015C87.3721 96.3034 95.2495 88.4296 104.968 88.4296V86.4296C94.146 86.4296 85.3721 95.1977 85.3721 106.015H87.3721ZM109.661 113.339C108.426 114.427 107.168 115.225 105.878 115.756L106.64 117.605C108.161 116.978 109.605 116.054 110.983 114.84L109.661 113.339ZM112.024 116.555C111.676 115.869 111.432 115.015 111.316 113.978L109.328 114.201C109.464 115.419 109.761 116.516 110.241 117.461L112.024 116.555ZM115.186 116.008H111.133V118.008H115.186V116.008ZM113.209 114.331C113.391 115.415 113.762 116.471 114.306 117.482L116.067 116.535C115.62 115.702 115.324 114.852 115.182 114.001L113.209 114.331ZM112.943 107.079C112.943 110.796 113.021 113.258 113.21 114.338L115.18 113.993C115.028 113.122 114.943 110.859 114.943 107.079H112.943ZM112.943 101.721V107.079H114.943V101.721H112.943ZM112.45 97.0701C112.763 98.0585 112.943 99.5825 112.943 101.721H114.943C114.943 99.5159 114.763 97.748 114.356 96.4652L112.45 97.0701ZM110.313 94.7989C111.535 95.4791 112.19 96.2571 112.45 97.0719L114.355 96.4634C113.895 95.0227 112.802 93.8957 111.286 93.0515L110.313 94.7989ZM105.115 93.7746C107.443 93.7746 109.142 94.145 110.312 94.7983L111.287 93.0521C109.7 92.1662 107.616 91.7746 105.115 91.7746V93.7746ZM98.5304 95.3197C99.962 94.3312 102.117 93.7746 105.115 93.7746V91.7746C101.915 91.7746 99.2956 92.3609 97.394 93.6739L98.5304 95.3197ZM95.624 100.212C96.1354 97.865 97.1262 96.2892 98.5304 95.3197L97.394 93.6739C95.465 95.0058 94.2578 97.0879 93.6699 99.786L95.624 100.212ZM98.6897 99.6048L94.798 99.0104L94.496 100.987L98.3877 101.582L98.6897 99.6048ZM99.9332 96.2036C98.751 97.042 98.0125 98.5207 97.5669 100.358L99.5105 100.829C99.9116 99.1757 100.489 98.2616 101.09 97.8349L99.9332 96.2036ZM104.574 95.0667C102.676 95.0667 101.082 95.3969 99.937 96.2009L101.086 97.8376C101.743 97.3765 102.852 97.0667 104.574 97.0667V95.0667ZM109.727 96.7882C108.504 95.579 106.714 95.0667 104.574 95.0667V97.0667C106.434 97.0667 107.617 97.5145 108.321 98.2105L109.727 96.7882ZM111.052 100.936C111.052 99.2146 110.699 97.7286 109.72 96.7809L108.329 98.2178C108.72 98.5961 109.052 99.3962 109.052 100.936H111.052ZM111.024 101.991L111.051 100.963L109.052 100.91L109.025 101.939L111.024 101.991ZM103.162 104.33C106.347 103.947 108.775 103.48 110.364 102.906L109.685 101.024C108.32 101.517 106.081 101.965 102.924 102.344L103.162 104.33ZM98.2104 105.545C99.2143 105.032 100.84 104.607 103.162 104.33L102.924 102.344C100.525 102.63 98.62 103.089 97.2997 103.765L98.2104 105.545ZM95.8537 107.672C96.4202 106.772 97.2012 106.062 98.2104 105.545L97.2996 103.765C95.9848 104.437 94.9276 105.388 94.1609 106.607L95.8537 107.672ZM94.9984 110.782C94.9984 109.581 95.2876 108.56 95.8504 107.677L94.1642 106.602C93.3759 107.838 92.9984 109.24 92.9984 110.782H94.9984ZM96.7906 114.959C95.6072 113.951 94.9984 112.597 94.9984 110.782H92.9984C92.9984 113.113 93.813 115.051 95.4943 116.482L96.7906 114.959ZM101.872 116.557C99.6462 116.557 97.991 115.994 96.7954 114.963L95.4895 116.478C97.1407 117.901 99.3052 118.557 101.872 118.557V116.557ZM105.876 115.757C104.583 116.293 103.254 116.557 101.872 116.557V118.557C103.517 118.557 105.107 118.241 106.642 117.604L105.876 115.757ZM109.639 104.197C108.333 104.743 106.306 105.231 103.511 105.639L103.8 107.618C106.645 107.203 108.87 106.686 110.41 106.043L109.639 104.197ZM111.025 106.591V105.12H109.025V106.591H111.025ZM110.05 111.53C110.741 110.296 111.025 108.607 111.025 106.591H109.025C109.025 108.476 108.75 109.759 108.305 110.553L110.05 111.53ZM107.101 114.368C108.385 113.679 109.392 112.733 110.055 111.521L108.3 110.562C107.846 111.392 107.142 112.076 106.155 112.606L107.101 114.368ZM102.836 115.402C104.384 115.402 105.809 115.062 107.101 114.368L106.155 112.606C105.177 113.132 104.081 113.402 102.836 113.402V115.402ZM98.7703 114.162C99.8344 115.033 101.231 115.402 102.836 115.402V113.402C101.522 113.402 100.63 113.1 100.037 112.614L98.7703 114.162ZM97.1603 110.675C97.1603 112.084 97.6946 113.282 98.7702 114.162L100.037 112.615C99.4549 112.138 99.1603 111.523 99.1603 110.675H97.1603ZM97.8615 108.196C97.3851 108.932 97.1603 109.773 97.1603 110.675H99.1603C99.1603 110.115 99.296 109.661 99.5403 109.283L97.8615 108.196ZM99.8029 106.537C98.9851 106.916 98.3308 107.472 97.8615 108.196L99.5402 109.283C99.7916 108.895 100.146 108.582 100.644 108.352L99.8029 106.537ZM103.513 105.639C101.867 105.876 100.593 106.166 99.798 106.539L100.649 108.349C101.151 108.113 102.165 107.854 103.798 107.619L103.513 105.639Z" fill="white" mask="url(#path-1-inside-1_12_10)"/>
</g>
</svg>
